<svg xmlns="http://www.w3.org/2000/svg" viewBox="0 0 3200 1200" width="3200" height="1200">
  <line x1="204.0" y1="124.0" x2="1436.0" y2="124.0" stroke="#333" stroke-width="8.0" class="wall"/>
  <line x1="1764.0" y1="124.0" x2="2996.0" y2="124.0" stroke="#333" stroke-width="8.0" class="wall"/>
  <line x1="204.0" y1="128.0" x2="1436.0" y2="128.0" stroke="#333" stroke-width="8.0" class="wall"/>
  <line x1="1764.0" y1="128.0" x2="2996.0" y2="128.0" stroke="#333" stroke-width="8.0" class="wall"/>
  <line x1="204.0" y1="132.0" x2="1436.0" y2="132.0" stroke="#333" stroke-width="8.0" class="wall"/>
  <line x1="1764.0" y1="132.0" x2="2996.0" y2="132.0" stroke="#333" stroke-width="8.0" class="wall"/>
  <line x1="1820.0" y1="644.0" x2="2540.0" y2="644.0" stroke="#333" stroke-width="8.0" class="wall"/>
  <line x1="1820.0" y1="648.0" x2="2528.0" y2="648.0" stroke="#333" stroke-width="8.0" class="wall"/>
  <line x1="260.0" y1="680.0" x2="828.0" y2="680.0" stroke="#333" stroke-width="8.0" class="wall"/>
  <line x1="876.0" y1="692.0" x2="1436.0" y2="692.0" stroke="#333" stroke-width="8.0" class="wall"/>
  <line x1="2588.0" y1="804.0" x2="2996.0" y2="804.0" stroke="#333" stroke-width="8.0" class="wall"/>
  <line x1="2588.0" y1="808.0" x2="2996.0" y2="808.0" stroke="#333" stroke-width="8.0" class="wall"/>
  <line x1="1140.0" y1="912.0" x2="1436.0" y2="912.0" stroke="#333" stroke-width="8.0" class="wall"/>
  <line x1="204.0" y1="1044.0" x2="1436.0" y2="1044.0" stroke="#333" stroke-width="8.0" class="wall"/>
  <line x1="1764.0" y1="1044.0" x2="2996.0" y2="1044.0" stroke="#333" stroke-width="8.0" class="wall"/>
  <line x1="204.0" y1="1048.0" x2="1436.0" y2="1048.0" stroke="#333" stroke-width="8.0" class="wall"/>
  <line x1="1764.0" y1="1048.0" x2="2996.0" y2="1048.0" stroke="#333" stroke-width="8.0" class="wall"/>
  <line x1="204.0" y1="1052.0" x2="1436.0" y2="1052.0" stroke="#333" stroke-width="8.0" class="wall"/>
  <line x1="1764.0" y1="1052.0" x2="2996.0" y2="1052.0" stroke="#333" stroke-width="8.0" class="wall"/>
  <line x1="1480.0" y1="1168.0" x2="2672.0" y2="1168.0" stroke="#333" stroke-width="8.0" class="wall"/>
  <line x1="208.0" y1="124.0" x2="208.0" y2="1056.0" stroke="#333" stroke-width="8.0" class="wall"/>
  <line x1="820.0" y1="140.0" x2="820.0" y2="672.0" stroke="#333" stroke-width="8.0" class="wall"/>
  <line x1="820.0" y1="696.0" x2="820.0" y2="1040.0" stroke="#333" stroke-width="8.0" class="wall"/>
  <line x1="824.0" y1="124.0" x2="824.0" y2="1056.0" stroke="#333" stroke-width="8.0" class="wall"/>
  <line x1="956.0" y1="712.0" x2="956.0" y2="1032.0" stroke="#333" stroke-width="8.0" class="wall"/>
  <line x1="1088.0" y1="692.0" x2="1088.0" y2="1056.0" stroke="#333" stroke-width="8.0" class="wall"/>
  <line x1="1160.0" y1="124.0" x2="1160.0" y2="696.0" stroke="#333" stroke-width="8.0" class="wall"/>
  <line x1="1432.0" y1="124.0" x2="1432.0" y2="1056.0" stroke="#333" stroke-width="8.0" class="wall"/>
  <line x1="1768.0" y1="124.0" x2="1768.0" y2="1056.0" stroke="#333" stroke-width="8.0" class="wall"/>
  <line x1="2536.0" y1="124.0" x2="2536.0" y2="1056.0" stroke="#333" stroke-width="8.0" class="wall"/>
  <line x1="2760.0" y1="824.0" x2="2760.0" y2="1032.0" stroke="#333" stroke-width="8.0" class="wall"/>
  <line x1="2992.0" y1="124.0" x2="2992.0" y2="1056.0" stroke="#333" stroke-width="8.0" class="wall"/>
  <rect x="0.0" y="0.0" width="3196.0" height="1196.0" fill="rgba(200,200,255,0.2)" stroke="blue" stroke-width="0.5" class="region" data-region-id="0" data-area="78584"/>
  <rect x="1796.0" y="160.0" width="708.0" height="456.0" fill="rgba(200,200,255,0.2)" stroke="blue" stroke-width="0.5" class="region" data-region-id="4" data-area="20393"/>
  <rect x="236.0" y="160.0" width="556.0" height="492.0" fill="rgba(200,200,255,0.2)" stroke="blue" stroke-width="0.5" class="region" data-region-id="1" data-area="17272"/>
  <rect x="2564.0" y="160.0" width="396.0" height="616.0" fill="rgba(200,200,255,0.2)" stroke="blue" stroke-width="0.5" class="region" data-region-id="5" data-area="15423"/>
  <rect x="1796.0" y="676.0" width="708.0" height="340.0" fill="rgba(200,200,255,0.2)" stroke="blue" stroke-width="0.5" class="region" data-region-id="6" data-area="15231"/>
  <rect x="236.0" y="708.0" width="556.0" height="308.0" fill="rgba(200,200,255,0.2)" stroke="blue" stroke-width="0.5" class="region" data-region-id="7" data-area="10843"/>
  <rect x="852.0" y="160.0" width="280.0" height="504.0" fill="rgba(200,200,255,0.2)" stroke="blue" stroke-width="0.5" class="region" data-region-id="2" data-area="8947"/>
  <rect x="1188.0" y="160.0" width="212.0" height="504.0" fill="rgba(200,200,255,0.2)" stroke="blue" stroke-width="0.5" class="region" data-region-id="3" data-area="6788"/>
</svg>